<svg xmlns="http://www.w3.org/2000/svg" width="613.814" height="402.104" viewBox="0 0 613.814 402.104">
  <g id="something-wrong" transform="translate(-153.985 -558.639)">
    <g id="Group_7271" data-name="Group 7271" transform="translate(153.984 558.639)">
      <g id="Group_7105" data-name="Group 7105" transform="translate(0 0)">
        <path id="Path_16129" data-name="Path 16129" d="M860.347,553.091c-37.976,0-521.389.059-521.389,0-.212-.479-108.4-50.273,13.57-192.972,41.2-48.2-13.107-84.819,28.02-125.659,47.266-46.932,71.867-8.177,124.426-29.459,9.286-3.756,18.6-9.8,27.933-19.082,21.781-21.644,51.6-31.462,81.964-33.674,58.726-4.25,124.815,19.657,158.921,54.6,6.866,7.037,38.09,43.445,13.477,93.488-15.541,31.6,49.562,61.772,72.7,97.851C918.781,489.914,860.881,551.895,860.347,553.091Z" transform="translate(-272.51 -151.756)" fill="#fff"/>
        <path id="Path_14595" data-name="Path 14595" d="M320.487,553.091c37.976,0,521.389.059,521.389,0,.212-.479,108.4-50.273-13.57-192.972-41.2-48.2,13.107-84.819-28.02-125.659-47.266-46.932-71.867-8.177-124.426-29.459-9.286-3.756-18.6-9.8-27.933-19.082-21.781-21.644-51.6-31.462-81.964-33.674-58.726-4.25-124.815,19.657-158.921,54.6-6.866,7.037-38.09,43.445-13.477,93.488,15.541,31.6-49.562,61.772-72.7,97.851C262.054,489.914,319.953,551.895,320.487,553.091Z" transform="translate(-294.51 -151.756)" fill="#f99746"/>
      </g>
      <g id="Group_7108" data-name="Group 7108" transform="translate(150.788 73.139)">
        <g id="Group_7106" data-name="Group 7106" transform="translate(27.175)" opacity="0.5">
          <path id="Path_14596" data-name="Path 14596" d="M1064.161,519.859s-5.041-40.2-25.8-64.091a4.5,4.5,0,0,0-7.877,3.092c0,.07,0,.141.007.212C1030.8,466.248,1054.064,496.384,1064.161,519.859Z" transform="translate(-1030.484 -454.224)" fill="#fab072"/>
        </g>
        <g id="Group_7107" data-name="Group 7107" transform="translate(0 4.196)">
          <path id="Path_14597" data-name="Path 14597" d="M981.526,544.52s-20.84-50.166-56.06-72.2A4.773,4.773,0,0,0,919,473.584c-.926,1.365-1.333,3.492-.265,6.8C921.584,489.215,960.894,518.756,981.526,544.52Z" transform="translate(-918.1 -471.578)" fill="#fab072"/>
        </g>
      </g>
      <g id="Group_7109" data-name="Group 7109" transform="translate(49.08 226.794)">
        <path id="Path_14598" data-name="Path 14598" d="M583.585,1094.8s32.109,21.244,27.787,26.974-34.072-26.251-34.072-26.251-36.631,13.45-45.284,24.281c0,0,41.7,10.084,36.1,14.574s-49.481-3.988-49.481-3.988-29.9,21.22-18.6,40.254,25.477,19.768,30.155,16.866,28.233-27.805,30.807-24.066-8.439,25.308-20.3,31.78c0,0,35.153,14.274,46.9-.381s7.471-26.868,14.893-35.792,15.549-12.823,13.754-6.5-16.94,18.916-17.749,31.159-2.454,21.246,12.08,11.107c39.781-27.751,24.271-61.429,24.271-61.429s9.839-36.976-19.218-43.47C615.621,1089.919,595.761,1088.01,583.585,1094.8Z" transform="translate(-497.482 -1089.672)" fill="#fab072"/>
      </g>
      <g id="Group_7110" data-name="Group 7110" transform="translate(105.059 147.396)">
        <path id="Path_14599" data-name="Path 14599" d="M792.351,764.183s10.453,19.645,6.677,21.364-10.069-22.73-10.069-22.73-22.316-3.268-29.7-.153c0,0,18.4,16.621,14.321,17.358s-24.036-15.67-24.036-15.67-21.042,2.533-20.551,15.318,7.49,17.067,10.667,16.883,22.009-6.34,22.285-3.73-11.265,10.529-19.078,10.545c0,0,13.921,16.944,23.928,12.738s11.2-11.588,17.435-14.075,11.434-2.226,8.779.491-13.822,4.938-17.608,10.934-7.105,10.116,3.074,8.973c27.86-3.128,29.268-24.512,29.268-24.512s15.194-16.069,2.225-27.381C809.971,770.536,800.409,764.09,792.351,764.183Z" transform="translate(-728.986 -761.318)" fill="#fab072"/>
      </g>
      <g id="Group_7111" data-name="Group 7111" transform="translate(232.063 73.37)" opacity="0.3">
        <path id="Path_14600" data-name="Path 14600" d="M1278.288,493.756s-.233,38.773,6.984,38.37-2.855-43.223-2.855-43.223,31.792-23.1,45.7-24.267c0,0-14.948,40.54-8.052,38.373s24.41-43.629,24.41-43.629,34.52-13.118,44.107,7.008,2.251,32.4-2.8,34.683-39.091,8.027-37.406,12.276,25.9,7.132,37.97.835c0,0-7.771,37.411-26.616,39.018s-26.666-8.816-38.293-7.611-19.445,5.818-13.15,7.861,25.324-3.564,36.019,2.624,19.149,9.861,2.517,16.334c-45.521,17.718-65-14.141-65-14.141s-36.449-12.5-25.589-40.452C1256.24,517.818,1265.78,500.133,1278.288,493.756Z" transform="translate(-1254.219 -455.18)" fill="#ffead8"/>
      </g>
      <g id="Group_7130" data-name="Group 7130" transform="translate(461.787 303.319)">
        <g id="Group_7116" data-name="Group 7116" transform="translate(52.036 38.864)">
          <g id="Group_7112" data-name="Group 7112" transform="translate(8.356)">
            <path id="Path_14601" data-name="Path 14601" d="M2457.16,1583.343s-6.81-7.945-.421-12.991c0,0,4.668-2.826,8.475-2.6,0,0-5.393,9.043-3.649,9.943s5.283-10.51,5.283-10.51,10.623-1.03,14.04.613c0,0-9.081,7.431-7.168,7.873s11.72-6.851,11.72-6.851,9.886,1.682,9.359,7.713-3.933,7.893-5.43,7.733-10.255-3.5-10.446-2.277,5.082,5.236,8.772,5.423c0,0-6.969,7.687-11.6,5.468s-5.028-5.735-7.916-7.054-5.352-1.316-4.161.03,6.419,2.653,8.07,5.573,3.133,4.891-1.66,4.17-12.582-4.228-12.925-8.243Z" transform="translate(-2454.005 -1566.869)" fill="#ffbd85"/>
          </g>
          <g id="Group_7115" data-name="Group 7115" transform="translate(0 9.783)">
            <g id="Group_7113" data-name="Group 7113" transform="translate(5.535)">
              <path id="Path_14602" data-name="Path 14602" d="M2481.1,1607.373s-26.851-1.035-32.781,6.644a19.425,19.425,0,0,1-5.347,7.5l-.629,1.714s4.653-4.906,6.317-5.2C2448.657,1618.033,2446.054,1608.52,2481.1,1607.373Z" transform="translate(-2442.34 -1607.327)" fill="#fab072"/>
            </g>
            <g id="Group_7114" data-name="Group 7114" transform="translate(0 13.519)">
              <path id="Path_14603" data-name="Path 14603" d="M2425.614,1663.912a16.86,16.86,0,0,0-6.164,11.878l1.046.094s1.841-7.875,5.168-10.954S2425.614,1663.912,2425.614,1663.912Z" transform="translate(-2419.45 -1663.236)" fill="#fab072"/>
            </g>
          </g>
        </g>
        <g id="Group_7121" data-name="Group 7121" transform="translate(0 17.293)">
          <g id="Group_7117" data-name="Group 7117">
            <path id="Path_14604" data-name="Path 14604" d="M2243.99,1505.714s10.833-6.067,5.777-14.3c0,0-4.044-5.055-8.377-6.355,0,0,2.311,12.277,0,12.567s-1.589-13.866-1.589-13.866-11.411-5.489-15.888-5.056c0,0,7.077,11.989,4.766,11.7s-10.255-12.422-10.255-12.422-11.7-2.167-13.578,4.767,1.156,10.4,2.889,10.833,12.855.288,12.566,1.733-7.8,3.755-11.989,2.455c0,0,4.622,11.411,10.688,10.833s7.945-4.333,11.7-4.622,6.5.722,4.623,1.733-8.234.331-11.267,2.91-5.489,4.168.144,5.323,15.744.433,17.766-3.9Z" transform="translate(-2204.253 -1477.66)" fill="#fab072"/>
          </g>
          <g id="Group_7120" data-name="Group 7120" transform="translate(5.937 7.254)">
            <g id="Group_7118" data-name="Group 7118">
              <path id="Path_14605" data-name="Path 14605" d="M2228.8,1507.659s30.332,9.822,33.8,20.8a23.045,23.045,0,0,0,2.888,10.544v2.166s-3.177-7.367-4.911-8.378C2260.582,1532.792,2267.371,1523.259,2228.8,1507.659Z" transform="translate(-2228.805 -1507.659)" fill="#fab072"/>
            </g>
            <g id="Group_7119" data-name="Group 7119" transform="translate(35.239 29.995)">
              <path id="Path_14606" data-name="Path 14606" d="M2375.987,1633.055A20.005,20.005,0,0,1,2378,1648.8l-1.2-.323s1.168-9.524-1.279-14.314S2375.987,1633.055,2375.987,1633.055Z" transform="translate(-2374.537 -1631.706)" fill="#fab072"/>
            </g>
          </g>
        </g>
        <g id="Group_7126" data-name="Group 7126" transform="translate(47.583 0)">
          <g id="Group_7122" data-name="Group 7122">
            <path id="Path_14607" data-name="Path 14607" d="M2410.421,1443.125s-14.28-8-7.615-18.85c0,0,5.331-6.664,11.043-8.377,0,0-3.046,16.184,0,16.565s2.094-18.278,2.094-18.278,15.042-7.235,20.945-6.664c0,0-9.33,15.8-6.284,15.422s13.519-16.375,13.519-16.375,15.422-2.856,17.9,6.283-1.523,13.709-3.808,14.28-16.946.38-16.565,2.285,10.281,4.95,15.8,3.237c0,0-6.094,15.042-14.09,14.28s-10.472-5.712-15.422-6.093-8.568.952-6.093,2.285,10.853.437,14.852,3.836,7.234,5.494-.191,7.017-20.754.571-23.419-5.141Z" transform="translate(-2401.034 -1406.145)" fill="#fab072"/>
          </g>
          <g id="Group_7125" data-name="Group 7125" transform="translate(1.846 9.562)">
            <g id="Group_7123" data-name="Group 7123" transform="translate(3.734)">
              <path id="Path_14608" data-name="Path 14608" d="M2472.471,1445.689s-39.984,12.947-44.554,27.418a30.374,30.374,0,0,1-3.808,13.9v2.856s4.189-9.711,6.474-11.043C2430.583,1478.818,2421.634,1466.252,2472.471,1445.689Z" transform="translate(-2424.109 -1445.689)" fill="#ffcb9f"/>
            </g>
            <g id="Group_7124" data-name="Group 7124" transform="translate(0 39.539)">
              <path id="Path_14609" data-name="Path 14609" d="M2412.4,1610.984s-6.166,9.364-2.651,20.762l1.586-.426s-1.54-12.555,1.687-18.869S2412.4,1610.984,2412.4,1610.984Z" transform="translate(-2408.667 -1609.206)" fill="#fab072"/>
            </g>
          </g>
        </g>
        <g id="Group_7127" data-name="Group 7127" transform="translate(28.517 68.386)">
          <path id="Path_14610" data-name="Path 14610" d="M2350.16,1716.931a27.973,27.973,0,0,0,27.973-27.972h-55.945A27.972,27.972,0,0,0,2350.16,1716.931Z" transform="translate(-2322.188 -1688.959)" fill="#fff"/>
        </g>
        <g id="Group_7128" data-name="Group 7128" transform="translate(28.131 94.331)">
          <path id="Path_14611" data-name="Path 14611" d="M2377.308,1799.705H2320.59a3.451,3.451,0,0,1,3.45-3.451h49.816a3.452,3.452,0,0,1,3.451,3.451Z" transform="translate(-2320.59 -1796.255)" fill="#fff"/>
        </g>
        <g id="Group_7129" data-name="Group 7129" transform="translate(27.597 68.386)">
          <rect id="Rectangle_569" data-name="Rectangle 569" width="57.501" height="0.858" fill="#fab072"/>
        </g>
      </g>
    </g>
    <g id="Character" transform="translate(193.799 505.882)">
      <g id="Group_8539" data-name="Group 8539" transform="translate(103.921 154.953)">
        <g id="Group_8439" data-name="Group 8439" transform="translate(19.15 104.829)">
          <g id="Group_8435" data-name="Group 8435">
            <g id="Group_8430" data-name="Group 8430" transform="translate(1.464)">
              <g id="Group_8429" data-name="Group 8429">
                <g id="Group_8428" data-name="Group 8428">
                  <g id="Group_8427" data-name="Group 8427">
                    <path id="Path_15983" data-name="Path 15983" d="M240.587,381.255a175.252,175.252,0,0,0-4.006-21.919c-.438-1.541-.812-3.1-1.184-4.661l-8.741-36.589s-3.639-2.971,6.082-15.912c4.5-6,3.666-28.919,3.666-28.919l-4.347,30.288,45.662-21.989s-19.172-54.619-25.369-62.6c-16.086-20.717-45.145-17.092-45.145-17.092l-38.042-.438a88.594,88.594,0,0,0-28.389,7.406l-.945.248,0,.2c-10.9,5.319-20.627,14.275-23.429,28.874-4.566,23.81-3.129,34.662-3.129,34.662l30.99-.55-2.75,65.6c-2.344,8.073-8.888,6.138-18.57,43.426C118.962,396.626,243.893,406,240.587,381.255Z" transform="translate(-113.059 -201.424)" fill="#455a64"/>
                  </g>
                </g>
              </g>
            </g>
            <path id="Path_15984" data-name="Path 15984" d="M160.033,237.148l5.646,24.057H112.41l3.5-40.332Z" transform="translate(-112.409 -177)" fill="#455a64"/>
            <g id="Group_8431" data-name="Group 8431" transform="translate(0 83.062)">
              <path id="Path_15985" data-name="Path 15985" d="M112.41,239.39c-.007-.158,2.687-.442,7.052-.7s10.406-.471,17.083-.442,12.72.323,17.081.668,7.045.715,7.034.868c-.014.169-2.716.095-7.079-.038s-10.386-.291-17.042-.323-12.682.054-17.047.1S112.419,239.555,112.41,239.39Z" transform="translate(-112.41 -238.246)" fill="#263238"/>
            </g>
            <g id="Group_8432" data-name="Group 8432" transform="translate(114.75 62.385)">
              <path id="Path_15986" data-name="Path 15986" d="M163.59,285.089a8.09,8.09,0,0,1-.311-2.346,16.876,16.876,0,0,1,.2-2.781,17.4,17.4,0,0,1,.92-3.587,27.059,27.059,0,0,1,1.87-4.065c.765-1.41,1.674-2.854,2.621-4.365a46.707,46.707,0,0,0,5.263-10.144,23.453,23.453,0,0,0,1.117-5.734,29.759,29.759,0,0,0-.162-5.486,55.974,55.974,0,0,0-1.92-9.179c-1.52-5.148-2.788-8.247-2.6-8.322a8.652,8.652,0,0,1,1.083,2.093c.614,1.38,1.457,3.406,2.312,5.982a49.973,49.973,0,0,1,2.2,9.3,29.686,29.686,0,0,1,.239,5.685,24.08,24.08,0,0,1-1.15,6.032A44.837,44.837,0,0,1,169.8,268.53c-.972,1.493-1.9,2.9-2.684,4.261a28.172,28.172,0,0,0-1.942,3.882,18.39,18.39,0,0,0-1.051,3.406,21.024,21.024,0,0,0-.39,2.675A10.5,10.5,0,0,1,163.59,285.089Z" transform="translate(-163.279 -229.08)" fill="#263238"/>
            </g>
            <g id="Group_8433" data-name="Group 8433" transform="translate(21.648 116.663)">
              <path id="Path_15987" data-name="Path 15987" d="M122.008,328.793c-.011,0,.029-.069.114-.2l.4-.574,1.589-2.2c.68-.956,1.6-2.11,2.632-3.457s2.25-2.872,3.6-4.558l9.592-11.822L145.57,299c1.957-2.422,3.921-4.94,5.933-7.519,1.974-2.586,3.923-5.108,5.688-7.563l2.608-3.612q1.212-1.781,2.369-3.483c1.595-2.26,2.834-4.448,4.135-6.475.6-1.02,1.121-2.013,1.656-2.963.5-.954,1.084-1.859,1.452-2.742l1.161-2.51q.277-.594.537-1.155.2-.565.383-1.095.366-1.057.683-1.968a8.452,8.452,0,0,0,.486-1.66c.2-.989.349-1.763.457-2.31.056-.251.1-.449.135-.6.033-.136.057-.2.068-.2s.01.07,0,.206c-.017.151-.041.351-.071.6-.081.549-.193,1.327-.337,2.32a8.007,8.007,0,0,1-.432,1.667q-.29.913-.631,1.977-.173.531-.359,1.1l-.513,1.16q-.53,1.195-1.119,2.52c-.354.888-.922,1.8-1.414,2.752-.523.954-1.032,1.95-1.623,2.974-1.28,2.033-2.5,4.227-4.083,6.492l-2.352,3.491q-1.273,1.773-2.6,3.618c-1.758,2.458-3.7,4.983-5.679,7.571-2.014,2.58-3.983,5.1-5.948,7.52l-5.675,6.98-9.72,11.8-3.687,4.54c-1.066,1.34-2.019,2.488-2.734,3.437l-1.7,2.177-.457.564A1.029,1.029,0,0,1,122.008,328.793Z" transform="translate(-79.902 -253.141)" fill="#263238"/>
            </g>
            <g id="Group_8434" data-name="Group 8434" transform="translate(48.111 43.677)">
              <path id="Path_15988" data-name="Path 15988" d="M135.547,220.786c.16.007.217,2.344.178,6.118s-.178,8.987-.4,14.739-.492,10.963-.744,14.728-.49,6.093-.652,6.086-.217-2.344-.178-6.118.178-8.987.4-14.742.492-10.959.744-14.726S135.385,220.779,135.547,220.786Z" transform="translate(-133.738 -220.786)" fill="#263238"/>
            </g>
            <path id="Path_15989" data-name="Path 15989" d="M191.739,237.08s-11.407,71.865-44.689,69.541c0,0-14.985-.178-19.8-10.14v-3.921Z" transform="translate(-93.779 -156.648)" opacity="0.3"/>
          </g>
          <g id="Group_8436" data-name="Group 8436" transform="translate(82.745 116.424)">
            <path id="Path_15990" data-name="Path 15990" d="M181.407,253.274c.009.325-7.219.857-16.14,1.193s-16.165.341-16.176.018,7.216-.859,16.142-1.193S181.4,252.949,181.407,253.274Z" transform="translate(-149.091 -253.035)" fill="#263238"/>
          </g>
          <g id="Group_8437" data-name="Group 8437" transform="translate(96.776 103.977)">
            <path id="Path_15991" data-name="Path 15991" d="M161.4,260.7c.011.061-.492.158-1.155-.334a7.152,7.152,0,0,1-1.787-2.662q-.961-1.993-2-4.155A13.844,13.844,0,0,1,155.4,250.9a2.824,2.824,0,0,1,1.27-3.183,2.093,2.093,0,0,1,1.965.088,3.908,3.908,0,0,1,1.218,1.157,13.687,13.687,0,0,1,1.3,2.536,15.507,15.507,0,0,1,1.044,4.615c.158,2.707-.406,4.313-.528,4.279-.194-.027.061-1.649-.3-4.191a17.1,17.1,0,0,0-1.22-4.288,14,14,0,0,0-1.234-2.276c-.494-.695-1.2-1.164-1.728-.868a1.707,1.707,0,0,0-.663,1.9,14.346,14.346,0,0,0,.916,2.425q.924,2.216,1.773,4.257a8.652,8.652,0,0,0,1.333,2.662C161,260.524,161.424,260.6,161.4,260.7Z" transform="translate(-155.311 -247.517)" fill="#263238"/>
          </g>
          <g id="Group_8438" data-name="Group 8438" transform="translate(102.914 103.801)">
            <path id="Path_15992" data-name="Path 15992" d="M158.057,262.006c-.144-.054.343-1.875,1.441-4.712.55-1.419,1.259-3.088,2.12-4.906.431-.909.9-1.854,1.41-2.826a5.376,5.376,0,0,1,1.06-1.511,1.933,1.933,0,0,1,2.233-.408,2.323,2.323,0,0,1,1.153,1.872,5.35,5.35,0,0,1-.226,1.832,13.45,13.45,0,0,1-1.173,3.048,13.927,13.927,0,0,1-3.481,4.218c-2.463,1.96-4.451,2.281-4.462,2.172-.086-.194,1.741-.8,3.918-2.8a14.513,14.513,0,0,0,3.063-4.085,13.289,13.289,0,0,0,1.015-2.824c.293-1.011.289-2.06-.356-2.393-.512-.352-1.286.5-1.73,1.421-.5.947-.981,1.866-1.455,2.763-.9,1.773-1.685,3.39-2.328,4.755C158.979,260.351,158.217,262.065,158.057,262.006Z" transform="translate(-158.032 -247.439)" fill="#263238"/>
          </g>
        </g>
        <path id="Path_15993" data-name="Path 15993" d="M136.1,223.079l6.372,43.034-4.125,7.551L133.3,259.033l1.128-.2Z" transform="translate(-67.028 -69.4)" opacity="0.3"/>
        <g id="Group_8509" data-name="Group 8509" transform="translate(141.459 90.346)">
          <path id="Path_16028" data-name="Path 16028" d="M166.9,226.392c.3-3.014.9-7.079,1.035-8.953.424-5.707,1.4-6.979,3.3-6.131,3.09,1.381-.147,15.971,2.075,16.165,1.193.106,2.795-8.425,3.433-12.63.684-4.5,1.153-10.593,1.439-12.763.314-2.393,4.385-2.939,4.236,1.306-.153,4.388-.363,16.476.661,16.95,2.829,1.311,2.723-15.946,3.395-21.588a7.311,7.311,0,0,1,.781-2.75,2.122,2.122,0,0,1,3.893.884c.749,5.5-.347,20.363.07,22.772.129.738,1.976,1.112,2.432-1.353.611-3.309.338-19.143,3.6-17.737,3.578,1.541-.266,20.275,1.2,22.183,2.725,3.553,3.032-16.806,6.415-15.924,1.712.447,1.674,1.087-.063,11.958-.8,5-4.146,15.845-5.967,25.123,7.846,27.681,21.579,79.525,19.571,96.615-1.153,9.8-23.871,16.564-33.613,9.256s-16.526-39.839-16.526-39.839l11.712-6.925-11.45-62.715h0c-.48-1.315-.7-4.733-1.394-6.352C166.321,232.072,166.693,228.42,166.9,226.392Z" transform="translate(-166.63 -195.004)" fill="#fff"/>
          <g id="Group_8508" data-name="Group 8508" transform="translate(13.492 108.078)">
            <path id="Path_16029" data-name="Path 16029" d="M179.11,275.9c-.318.063-2.019-7.273-3.8-16.379s-2.966-16.544-2.648-16.607,2.019,7.27,3.8,16.382S179.428,275.838,179.11,275.9Z" transform="translate(-172.611 -242.915)" fill="#eb996e"/>
          </g>
        </g>
        <g id="Group_8535" data-name="Group 8535" transform="translate(24.949)">
          <g id="Group_8533" data-name="Group 8533">
            <path id="Path_16030" data-name="Path 16030" d="M165.713,223.884a145.236,145.236,0,0,1,30-1.211,10.949,10.949,0,0,0-6.064-15.7c-1.236-.415-2.608-.645-3.562-1.536-1.543-1.444-1.324-3.925-.8-5.973s1.209-4.293.268-6.183c-1.471-2.957-5.777-3.011-8.17-5.288-2.754-2.617-2.109-7.045-2.632-10.81a16.048,16.048,0,0,0-13.7-13.325" transform="translate(-57.124 -143.773)" fill="#163560"/>
            <path id="Path_16031" data-name="Path 16031" d="M187.139,156.589a27.033,27.033,0,0,0-29.206,12.894c-2.982,5.441-4.507,12.45-10.056,15.224-3.39,1.7-7.394,1.272-11.168,1.629s-8.028,2.107-8.928,5.791c-.909,3.722,1.935,8.279-.577,11.173-1.608,1.854-4.475,1.744-6.736,2.7-4.584,1.944-5.883,7.891-5.387,12.844s2.143,9.968.977,14.807c5.035,1.541,10.133,3.095,15.391,3.37s10.78-.853,14.87-4.173c-.435,2.159.968,4.363,2.854,5.5a13.856,13.856,0,0,0,6.35,1.55,62.618,62.618,0,0,0,21.405-2.384" transform="translate(-114.981 -153.748)" fill="#163560"/>
            <g id="Group_8529" data-name="Group 8529" transform="translate(33.531 0.253)">
              <g id="Group_8522" data-name="Group 8522">
                <g id="Group_8510" data-name="Group 8510" transform="translate(23.071 6.738)">
                  <path id="Path_16032" data-name="Path 16032" d="M180.386,259.007c-.144-9.4-.282-18.709-.282-18.709s15.213-1.491,16.3-16.945.535-51.127.535-51.127L169.4,158.052l-29.332,23.742,1.2,78.152A19.567,19.567,0,0,0,161.8,278.854h0A19.566,19.566,0,0,0,180.386,259.007Z" transform="translate(-140.073 -158.052)" fill="#fff"/>
                </g>
                <g id="Group_8514" data-name="Group 8514" transform="translate(70.908 42.73)">
                  <g id="Group_8511" data-name="Group 8511" transform="translate(1.871 2.578)">
                    <path id="Path_16033" data-name="Path 16033" d="M165.966,177.149a1.929,1.929,0,1,1-1.908-2A1.953,1.953,0,0,1,165.966,177.149Z" transform="translate(-162.109 -175.15)" fill="#263238"/>
                  </g>
                  <g id="Group_8513" data-name="Group 8513">
                    <g id="Group_8512" data-name="Group 8512">
                      <path id="Path_16034" data-name="Path 16034" d="M168.9,176.448c-.253.253-1.663-1.006-3.738-1.141-2.073-.167-3.645.873-3.86.584-.1-.126.16-.6.846-1.069a5.022,5.022,0,0,1,6.064.442C168.826,175.832,169.02,176.335,168.9,176.448Z" transform="translate(-161.279 -174.007)" fill="#263238"/>
                    </g>
                  </g>
                </g>
                <g id="Group_8518" data-name="Group 8518" transform="translate(47.892 42.73)">
                  <g id="Group_8515" data-name="Group 8515" transform="translate(2.539 2.585)">
                    <path id="Path_16035" data-name="Path 16035" d="M156.059,177.152a1.929,1.929,0,1,1-1.908-2A1.953,1.953,0,0,1,156.059,177.152Z" transform="translate(-152.202 -175.153)" fill="#263238"/>
                  </g>
                  <g id="Group_8517" data-name="Group 8517">
                    <g id="Group_8516" data-name="Group 8516">
                      <path id="Path_16036" data-name="Path 16036" d="M158.693,176.448c-.25.253-1.663-1.006-3.738-1.141-2.071-.167-3.643.873-3.857.587-.1-.129.158-.6.846-1.072a5.023,5.023,0,0,1,6.064.442C158.621,175.832,158.818,176.335,158.693,176.448Z" transform="translate(-151.076 -174.007)" fill="#263238"/>
                    </g>
                  </g>
                </g>
                <g id="Group_8520" data-name="Group 8520" transform="translate(62.643 43.981)">
                  <g id="Group_8519" data-name="Group 8519">
                    <path id="Path_16037" data-name="Path 16037" d="M157.786,193.155a12.746,12.746,0,0,1,3.4-.422c.532-.023,1.038-.1,1.146-.483a3.119,3.119,0,0,0-.282-1.708q-.656-2.111-1.378-4.43c-1.911-6.3-3.264-11.473-3.03-11.55s1.976,4.972,3.884,11.277c.458,1.554.9,3.034,1.313,4.453a3.538,3.538,0,0,1,.178,2.247,1.327,1.327,0,0,1-.909.771,3.471,3.471,0,0,1-.9.072A12.74,12.74,0,0,1,157.786,193.155Z" transform="translate(-157.615 -174.562)" fill="#263238"/>
                  </g>
                </g>
                <g id="Group_8521" data-name="Group 8521">
                  <path id="Path_16038" data-name="Path 16038" d="M129.867,199.694c.169-1.1-.149,1.189.068-.53v-.007h0a59.25,59.25,0,0,1,1-6.26c8.558-32.167,36.239-37.89,41.7-37.832,5.858.061,22.621-.431,31.949,11.25,12.31,15.421,5.337,30.692,5.337,30.692h0L185.5,192.685c1.809-6.082-.679-13.681-2.1-17.227l-.14-.135c-4.636,23.1-29.537,28.29-29.537,28.29l-.291,33.864c-18.141-2.626-23.99-24.392-23.566-37.782Z" transform="translate(-129.846 -155.065)" fill="#163560"/>
                </g>
              </g>
              <g id="Group_8528" data-name="Group 8528" transform="translate(12.956 49.884)">
                <g id="Group_8524" data-name="Group 8524">
                  <g id="Group_8523" data-name="Group 8523">
                    <path id="Path_16039" data-name="Path 16039" d="M146.818,189.907c.149-2.319,1.225-7.877.449-10.068s-3.208-2.684-5.885-2.66-5.888,2.488-5.791,5.779c.079,2.673.966,5.418,3.26,6.792a8.86,8.86,0,0,0,7.728.433" transform="translate(-135.589 -177.179)" fill="#fff"/>
                  </g>
                </g>
                <g id="Group_8527" data-name="Group 8527" transform="translate(3.438 3.335)">
                  <g id="Group_8526" data-name="Group 8526">
                    <g id="Group_8525" data-name="Group 8525">
                      <path id="Path_16040" data-name="Path 16040" d="M142.017,185c-.081-.156-.76.167-1.735-.16a3.125,3.125,0,0,1-2-3.018,2.35,2.35,0,0,1,.548-1.841,2.081,2.081,0,0,1,1.529-.411c1.042.12,1.769.417,1.834.241.047-.115-.451-.661-1.687-1.051a2.747,2.747,0,0,0-2.35.388,3.193,3.193,0,0,0-1.035,2.718,4.344,4.344,0,0,0,.968,2.633,3.224,3.224,0,0,0,2.019,1.144C141.476,185.819,142.128,185.09,142.017,185Z" transform="translate(-137.113 -178.657)" fill="#fff"/>
                    </g>
                  </g>
                </g>
              </g>
            </g>
            <g id="Group_8530" data-name="Group 8530" transform="translate(95.167 66.762)">
              <path id="Path_16041" data-name="Path 16041" d="M158.22,185.062c-.111-.1.386-.693,1.444-.46a1.828,1.828,0,0,1,1.322,1.295,2.07,2.07,0,0,1-.729,2.193,2.035,2.035,0,0,1-2.319.014,1.735,1.735,0,0,1-.742-1.719c.212-1.087,1.015-1.259,1.038-1.11.09.138-.28.514-.21,1.157a.917.917,0,0,0,.492.756,1.051,1.051,0,0,0,1.047-.043,1.093,1.093,0,0,0,.37-1,1.047,1.047,0,0,0-.555-.765C158.8,185.057,158.294,185.211,158.22,185.062Z" transform="translate(-157.169 -184.548)" fill="#263238"/>
            </g>
            <g id="Group_8531" data-name="Group 8531" transform="translate(80.422 38.545)">
              <path id="Path_16042" data-name="Path 16042" d="M160.458,172.807c-.074.336-2.348,0-5.015.629-2.675.587-4.579,1.87-4.791,1.6-.228-.208,1.543-2.08,4.532-2.745C158.164,171.6,160.571,172.521,160.458,172.807Z" transform="translate(-150.632 -172.04)" fill="#263238"/>
            </g>
            <g id="Group_8532" data-name="Group 8532" transform="translate(51.982)">
              <path id="Path_16043" data-name="Path 16043" d="M166.293,155.429a21.073,21.073,0,0,1-2.542.011,20.934,20.934,0,0,0-6.682,1.306,24.054,24.054,0,0,0-8.434,5.421,29.688,29.688,0,0,0-6.6,10.374c-3.19,8.295-3.115,16.564-3.018,22.366.1,2.729.187,5.048.257,6.939a10.8,10.8,0,0,1-.023,2.558,10.6,10.6,0,0,1-.433-2.522c-.2-1.633-.447-4-.632-6.941a74.785,74.785,0,0,1,.032-10.37,44.139,44.139,0,0,1,2.723-12.454,29.755,29.755,0,0,1,6.934-10.726,23.944,23.944,0,0,1,8.917-5.43,18.97,18.97,0,0,1,6.964-.979,12.538,12.538,0,0,1,1.895.248C166.081,155.321,166.3,155.389,166.293,155.429Z" transform="translate(-138.025 -154.953)" fill="#455a64"/>
            </g>
          </g>
          <g id="Group_8534" data-name="Group 8534" transform="translate(75.617 81.33)">
            <path id="Path_16044" data-name="Path 16044" d="M171.19,198.578c.02.138-1.349.512-3.634.677a25.622,25.622,0,0,1-8.881-1.024,20.2,20.2,0,0,1-7.848-4.318c-1.705-1.566-2.42-2.82-2.314-2.9.147-.122,1.08.923,2.845,2.258a24.051,24.051,0,0,0,7.658,3.833C165.517,199.065,171.179,198.167,171.19,198.578Z" transform="translate(-148.502 -191.007)" fill="#eb996e"/>
          </g>
        </g>
        <g id="Group_8538" data-name="Group 8538" transform="translate(29.948 90.299)">
          <path id="Path_16045" data-name="Path 16045" d="M135.672,293.11l17.848.988c1.128,5.786,5.046,14.631,5.046,14.631,14.365-24.935,25.5-58.344,28.267-71.772-.4-1.34-.88-2.824-1.475-4.482-.686-1.915-.1-5.538.228-7.55.48-2.991,1.317-7.011,1.568-8.874.767-5.673,1.681-6.564,3.659-5.924,2.691.873-1.1,15.935,1.1,16.262,1.186.176,2.635-4.985,3.057-9.219s2.335-17.257,3.733-18.125c2.051-1.272,3.839.742,3.321,4.958-.523,4.266-1.184,16.991,1.053,17.162,2.2.171,4.054-21.421,4.054-21.421s-.347-4.7,2.242-4.584c4.674.2,1.022,22.964.623,25.12-.28,1.5,2.148,1.775,2.36.147.221-1.674,1.349-21.59,6.106-21.43,3.65.122-2.829,18.757-.781,23.077s3.476-14.672,6.961-14.41c1.3.1,2.258.352-.129,11.1-1.279,5.777-5.044,16.4-8.335,25.188-5.524,29.8-29.772,125.128-67.786,107.678-21.272-9.763-31.2-58.107-31.2-58.107Z" transform="translate(-117.197 -194.763)" fill="#fff"/>
          <g id="Group_8537" data-name="Group 8537" transform="translate(41.342)">
            <g id="Group_8536" data-name="Group 8536">
              <path id="Path_16046" data-name="Path 16046" d="M188.136,221.742a1.154,1.154,0,0,1-.494-.068,1.1,1.1,0,0,1-.776-1.191c.047-1.279.25-3.145.546-5.556.219-2.427.945-5.339.947-8.786.029-1.728-.016-3.582-.115-5.549a19,19,0,0,0-.3-2.971c-.162-.934-.787-2-1.509-1.875l-.079.016-.034,0c-.735-.034-1.308.537-1.543,1.412a8.071,8.071,0,0,0-.271,2.761l0,.038,0,.027a167.168,167.168,0,0,1-2.206,17.218c-.165.769-.336,1.545-.575,2.328a11.321,11.321,0,0,1-.431,1.18,3.562,3.562,0,0,1-.35.611,1.119,1.119,0,0,1-.862.541,1.541,1.541,0,0,1-1.3-1.083,6.356,6.356,0,0,1-.386-1.268,18.815,18.815,0,0,1-.332-2.517,74.947,74.947,0,0,1,.138-10.316c.079-1.778.519-3.553.214-5.163a2.86,2.86,0,0,0-1.015-1.924,1.1,1.1,0,0,0-.887-.113,2,2,0,0,0-.49.212.657.657,0,0,0-.228.3,25.7,25.7,0,0,0-1.43,5.184c-.365,1.825-.684,3.684-.975,5.565s-.557,3.783-.78,5.7a39.95,39.95,0,0,1-.95,5.867,20.212,20.212,0,0,1-.932,2.914,5.308,5.308,0,0,1-.85,1.457,1.226,1.226,0,0,1-1.234.449,1.321,1.321,0,0,1-.841-.925,10.235,10.235,0,0,1-.219-3.21c.045-1.024.129-2.035.214-3.045.149-1.737.314-3.456.374-5.15a17.658,17.658,0,0,0-.063-2.479,3.928,3.928,0,0,0-.25-1.076.883.883,0,0,0-.2-.307c-.032-.034-.052-.018-.079-.052l-.268-.077c-1.367-.566-1.823,1.338-2.186,2.872-.318,1.6-.519,3.253-.841,4.879-.541,3.248-1.236,6.476-1.6,9.578a11.065,11.065,0,0,0,.18,4.439q.731,2.237,1.448,4.424l.043.133-.032.138a238.479,238.479,0,0,1-9.226,29.817c-3.266,8.8-6.528,16.4-9.411,22.623s-5.45,11.022-7.23,14.293l-2.145,3.688a8.585,8.585,0,0,1-.8,1.238,9.063,9.063,0,0,1,.634-1.331c.492-.929,1.153-2.181,1.99-3.767,1.676-3.321,4.151-8.152,6.93-14.4s5.964-13.864,9.154-22.664a244.871,244.871,0,0,0,9.021-29.718l.011.271q-.714-2.159-1.444-4.365a11.992,11.992,0,0,1-.255-4.933c.37-3.226,1.044-6.359,1.584-9.623.316-1.613.512-3.269.846-4.958a9.6,9.6,0,0,1,.841-2.554,2.469,2.469,0,0,1,1.137-1.148,2.546,2.546,0,0,1,1.629-.065l.345.1a1.807,1.807,0,0,1,.469.266,2.027,2.027,0,0,1,.521.733,5.018,5.018,0,0,1,.343,1.408,18.5,18.5,0,0,1,.072,2.66c-.061,1.75-.23,3.478-.377,5.211-.086,1.006-.169,2.008-.212,3a9.659,9.659,0,0,0,.153,2.772c.052.217.153.176.036.282l0,.009c.009-.07-.018.1-.011.074l0-.02a.138.138,0,0,0-.007-.07c-.011-.018-.056-.092-.029-.1a.316.316,0,0,0,.124-.113,4.326,4.326,0,0,0,.629-1.119,18.884,18.884,0,0,0,.875-2.736,38.994,38.994,0,0,0,.932-5.718c.23-1.94.5-3.853.8-5.745s.62-3.765,1-5.612a25.742,25.742,0,0,1,1.566-5.509,1.863,1.863,0,0,1,.647-.724,3.221,3.221,0,0,1,.769-.325,2.253,2.253,0,0,1,1.744.244,3.867,3.867,0,0,1,1.523,2.684,9.813,9.813,0,0,1,.036,2.824c-.1.882-.189,1.744-.257,2.614a74.364,74.364,0,0,0-.187,10.158,18.372,18.372,0,0,0,.3,2.382,5.371,5.371,0,0,0,.314,1.067,1.368,1.368,0,0,0,.226.386c.074.171.142-.038.133.239-.1-.21,0-.092.077-.271a2.731,2.731,0,0,0,.246-.426,10.668,10.668,0,0,0,.39-1.058c.23-.733.4-1.491.571-2.24a171.477,171.477,0,0,0,2.33-17.085v.065a8.852,8.852,0,0,1,.336-3.068,3.12,3.12,0,0,1,.808-1.372,2.137,2.137,0,0,1,1.527-.559l-.113.014a1.782,1.782,0,0,1,1.778.853,4.437,4.437,0,0,1,.634,1.6,19.379,19.379,0,0,1,.275,3.1c.074,1.983.09,3.851.032,5.6-.065,3.517-.857,6.429-1.137,8.827-.359,2.4-.627,4.257-.742,5.509a.977.977,0,0,0,.6,1.081C187.969,221.7,188.14,221.717,188.136,221.742Z" transform="translate(-135.524 -194.983)" fill="#eb996e"/>
            </g>
          </g>
        </g>
      </g>
    </g>
    <g id="Speech_Bubble" data-name="Speech Bubble" transform="translate(504.237 662.835)">
      <g id="Group_8581" data-name="Group 8581" transform="translate(0 0)">
        <g id="Group_8580" data-name="Group 8580">
          <path id="Path_16072" data-name="Path 16072" d="M73.439,220.074c2.132-.523,12.4-3.048,32.269-7.93l-.237-.037a53.629,53.629,0,0,0,27.855,8.352,58.326,58.326,0,0,0,17.261-2.519,53.4,53.4,0,0,0,16.823-8.918,54.06,54.06,0,0,0,20.351-35.966A53.395,53.395,0,0,0,173.9,129.975a55.92,55.92,0,0,0-9.346-8.144c-1.743-1.076-3.464-2.2-5.263-3.143l-2.743-1.321-1.369-.659-1.422-.519a54.438,54.438,0,0,0-23.2-3.534A53.713,53.713,0,0,0,83.2,148.811a55.665,55.665,0,0,0-2.982,17.424,53.5,53.5,0,0,0,7.73,27.954l0-.292c-8.971,16.191-13.505,24.372-14.506,26.177,1.035-1.784,5.726-9.877,15.01-25.891l.084-.146-.089-.146A53.144,53.144,0,0,1,81,166.24,55.015,55.015,0,0,1,84.017,149.1a52.876,52.876,0,0,1,46.6-35.406,53.489,53.489,0,0,1,22.748,3.491l1.393.51,1.34.644,2.69,1.3c1.762.93,3.445,2.029,5.158,3.083a55.135,55.135,0,0,1,9.159,7.986,52.984,52.984,0,0,1-6.281,77.577A52.54,52.54,0,0,1,150.32,217.1a57.643,57.643,0,0,1-16.982,2.558,53.23,53.23,0,0,1-27.542-8.068l-.113-.07-.126.033Z" transform="translate(-73.439 -112.537)" fill="#fff" stroke="#fff" stroke-width="1"/>
        </g>
        <path id="Path_16073" data-name="Path 16073" d="M110.937,129.045,109.231,156a4.375,4.375,0,0,1-4.106,4.09h0a4.373,4.373,0,0,1-4.606-3.886l-2.993-27.093a3.432,3.432,0,0,1,3.458-3.808l6.576.093A3.431,3.431,0,0,1,110.937,129.045Z" transform="translate(-45.757 -99.028)" fill="#fff"/>
        <path id="Path_16074" data-name="Path 16074" d="M97.911,154.022a6.578,6.578,0,1,0,4.17-8.317A6.579,6.579,0,0,0,97.911,154.022Z" transform="translate(-45.686 -77.798)" fill="#fff"/>
      </g>
    </g>
  </g>
</svg>
